<?xml version="1.0" encoding="utf-8"?>
<!-- Generator: Adobe Illustrator 16.0.0, SVG Export Plug-In . SVG Version: 6.00 Build 0)  -->
<!DOCTYPE svg PUBLIC "-//W3C//DTD SVG 1.1//EN" "http://www.w3.org/Graphics/SVG/1.1/DTD/svg11.dtd">
<svg version="1.1" id="圖層_1" xmlns="http://www.w3.org/2000/svg" xmlns:xlink="http://www.w3.org/1999/xlink" x="0px" y="0px"
	 width="51.024px" height="42.52px" viewBox="0 0 51.024 42.52" enable-background="new 0 0 51.024 42.52" xml:space="preserve">
<path fill="none" stroke="#000000" stroke-width="1.6672" stroke-linecap="round" stroke-miterlimit="10" d="M8.757,33.785
	l12.885-11.729c0.048-0.044,0.123-0.041,0.167,0.008l8.216,8.515"/>
<path fill="none" stroke="#000000" stroke-width="1.6672" stroke-linecap="round" stroke-miterlimit="10" d="M26.127,26.041
	l7.702-8.526c0.044-0.048,0.119-0.052,0.167-0.008l8.97,8.435"/>
<path fill="none" stroke="#000000" stroke-width="1.6672" stroke-miterlimit="10" d="M46.779,38.273
	c0,0.066-0.054,0.119-0.118,0.119H4.363c-0.065,0-0.118-0.053-0.118-0.119V4.246c0-0.065,0.053-0.118,0.118-0.118h42.298
	c0.064,0,0.118,0.053,0.118,0.118V38.273z"/>
<g>
	<path d="M15.642,13.78c1.414,0,2.561,1.146,2.561,2.561s-1.146,2.56-2.561,2.56c-1.413,0-2.56-1.146-2.56-2.56
		S14.229,13.78,15.642,13.78 M15.642,12.015c-2.384,0-4.324,1.94-4.324,4.325c0,2.384,1.94,4.324,4.324,4.324
		c2.385,0,4.325-1.94,4.325-4.324C19.967,13.956,18.027,12.015,15.642,12.015L15.642,12.015z"/>
</g>
</svg>
